<?xml version="1.0" standalone="no"?>
<!DOCTYPE svg PUBLIC "-//W3C//DTD SVG 20010904//EN"
 "http://www.w3.org/TR/2001/REC-SVG-20010904/DTD/svg10.dtd">
<svg version="1.0" xmlns="http://www.w3.org/2000/svg"
 width="850.000000pt" height="850.000000pt" viewBox="0 0 850.000000 850.000000"
 preserveAspectRatio="xMidYMid meet">

<g transform="translate(0.000000,850.000000) scale(0.100000,-0.100000)"
fill="#000000" stroke="none">
<path d="M5960 7873 l-115 -37 -217 -2 c-119 -2 -235 -8 -257 -14 -56 -15
-102 -58 -141 -132 -39 -74 -78 -126 -141 -188 -98 -96 -109 -169 -65 -406 13
-71 27 -154 30 -185 l7 -56 -173 -7 c-95 -4 -267 -17 -383 -29 l-210 -22 -30
-47 c-16 -25 -46 -75 -65 -109 -19 -34 -65 -106 -103 -158 -103 -147 -122
-191 -121 -281 1 -50 12 -115 34 -195 36 -136 53 -207 75 -314 8 -41 24 -105
36 -142 l21 -67 187 -7 c168 -7 566 5 731 22 l55 5 24 -143 c25 -158 70 -343
133 -544 22 -71 46 -151 54 -176 12 -40 19 -48 47 -54 60 -13 701 -22 713 -10
14 13 78 67 201 169 105 86 163 164 188 251 20 66 17 223 -8 418 -7 59 -11
111 -8 116 5 8 261 35 526 57 78 6 82 8 147 60 37 30 99 91 138 136 40 46 92
102 116 126 81 77 94 104 94 196 0 117 -93 621 -129 702 l-19 42 -129 7 c-94
6 -192 3 -368 -11 -132 -10 -305 -18 -385 -19 l-145 0 -12 90 c-6 50 -17 205
-23 345 -10 232 -23 425 -35 490 -22 130 -25 138 -57 149 -50 18 -96 12 -218
-26z m174 -150 c27 -123 36 -221 46 -511 6 -169 16 -322 26 -372 24 -133 13
-122 112 -116 448 30 613 37 769 34 100 -2 184 -5 186 -8 6 -6 72 -320 88
-415 5 -33 8 -107 7 -164 l-3 -105 -28 -7 c-79 -21 -298 -30 -582 -23 -165 4
-335 4 -377 0 l-78 -8 0 -70 c0 -63 42 -370 71 -518 6 -30 13 -121 16 -202 5
-121 3 -148 -8 -153 -8 -2 -117 -9 -244 -14 -156 -6 -252 -15 -298 -27 -37 -9
-70 -15 -72 -12 -8 8 -53 200 -69 293 -15 91 -58 502 -73 695 l-8 105 -380 -1
c-373 0 -490 -8 -680 -43 -44 -8 -46 -7 -60 20 -29 55 -66 216 -85 368 -27
206 -26 229 3 235 154 31 365 47 725 53 194 3 354 9 356 12 7 11 -22 266 -54
466 -36 233 -61 457 -52 467 17 17 169 39 400 58 136 11 252 22 257 24 6 3 24
5 42 5 31 1 32 0 47 -66z m-775 -273 c33 -201 47 -308 56 -435 4 -49 8 -106
11 -126 l3 -36 -107 -12 c-59 -7 -116 -15 -127 -17 -19 -4 -23 9 -58 188 -43
221 -48 318 -18 385 11 23 58 83 105 133 47 51 86 97 86 103 0 7 3 8 10 1 5
-5 23 -88 39 -184z m-1020 -922 c11 -51 30 -151 41 -223 22 -132 53 -263 71
-297 6 -12 17 -17 32 -13 252 53 692 85 919 66 163 -13 168 -16 168 -93 0
-128 55 -591 96 -808 38 -204 44 -222 63 -215 32 13 218 44 320 55 108 10 301
14 301 5 0 -11 -168 -232 -201 -263 -68 -67 -61 -66 -409 -63 -173 1 -318 6
-322 10 -15 14 -129 437 -154 570 -14 75 -38 186 -52 246 -22 91 -30 110 -45
109 -168 -14 -449 -25 -671 -27 l-280 -2 -11 60 c-7 33 -36 137 -65 230 -46
148 -53 184 -58 277 -4 103 -3 109 25 170 17 35 62 103 102 151 39 49 78 101
86 118 9 16 17 29 19 29 3 0 14 -42 25 -92z m2941 -553 c0 -7 -92 -138 -131
-186 -72 -87 -167 -119 -358 -119 -115 -1 -333 -16 -367 -25 -20 -6 -22 -1
-34 72 -6 43 -14 117 -17 164 l-6 86 294 -4 c162 -2 357 0 434 5 77 5 150 10
163 11 12 0 22 -1 22 -4z"/>
<path d="M5460 6561 c-15 -29 -12 -38 13 -45 24 -6 47 15 47 46 0 25 -46 24
-60 -1z"/>
<path d="M5666 6535 c-22 -34 -20 -45 9 -45 24 0 45 25 45 54 0 25 -36 19 -54
-9z"/>
<path d="M1405 6850 c-300 -10 -394 -20 -459 -49 -60 -26 -83 -52 -163 -181
-52 -84 -90 -131 -139 -174 -101 -90 -110 -129 -62 -265 25 -72 47 -168 99
-426 36 -182 54 -247 111 -398 9 -26 14 -28 47 -23 66 10 560 25 1021 31 250
3 599 8 776 11 l321 6 99 97 c112 109 185 191 262 295 29 39 56 76 60 81 4 6
16 29 25 53 23 57 22 153 -4 299 -31 182 -38 230 -49 377 -14 182 -25 235 -53
240 -98 21 -1470 39 -1892 26z m1367 -101 c324 -8 455 -14 460 -22 4 -7 8 -33
8 -58 0 -25 13 -134 30 -242 16 -107 32 -235 35 -284 3 -48 8 -100 10 -114 l4
-26 -322 -6 c-350 -7 -541 -20 -1202 -77 -183 -16 -572 -40 -646 -40 l-67 0
-5 33 c-12 63 -74 553 -94 733 l-6 52 39 6 c307 47 958 64 1756 45z m-1849
-209 c20 -70 33 -146 47 -285 6 -60 18 -168 26 -240 8 -71 15 -143 16 -158 2
-17 11 -34 23 -40 32 -19 442 -14 595 6 467 61 507 64 1095 83 281 9 515 16
520 17 18 3 8 -33 -26 -89 -30 -49 -151 -193 -251 -300 l-34 -36 -125 -9
c-112 -8 -889 -22 -1664 -31 l-300 -3 -16 85 c-9 47 -53 234 -98 417 -94 380
-94 348 2 441 31 29 68 74 83 100 40 70 75 115 83 105 4 -4 15 -33 24 -63z"/>
<path d="M2685 6334 c-24 -24 -16 -59 15 -59 32 0 63 50 40 65 -22 14 -36 12
-55 -6z"/>
<path d="M2907 6246 c-7 -18 1 -26 25 -26 11 0 18 7 18 20 0 23 -35 28 -43 6z"/>
<path d="M2405 4090 c-11 -5 -45 -9 -75 -10 l-55 -1 -57 -72 c-74 -95 -182
-212 -265 -290 -169 -156 -203 -206 -203 -299 0 -105 50 -210 144 -300 59 -57
200 -83 295 -54 107 31 187 87 365 250 48 44 106 92 127 106 22 14 42 34 45
45 4 11 21 51 39 90 41 89 50 139 35 212 -36 177 -190 334 -324 332 -28 0 -60
-4 -71 -9z m154 -126 c60 -30 125 -105 141 -162 46 -167 -55 -291 -244 -300
-73 -3 -86 -1 -136 25 -75 38 -112 93 -118 172 -8 112 49 210 154 264 67 35
133 35 203 1z m-411 -280 c26 -168 113 -250 274 -261 43 -3 78 -9 78 -12 -1
-11 -25 -37 -55 -58 -16 -12 -52 -42 -79 -67 -56 -53 -130 -90 -222 -113 -119
-29 -202 7 -249 109 -40 86 -50 152 -31 203 16 42 86 117 172 187 23 18 50 45
60 60 11 16 24 28 29 28 6 0 16 -34 23 -76z"/>
<path d="M7013 4021 c-21 -14 -126 -155 -203 -271 -251 -380 -338 -502 -371
-523 -19 -12 -35 -2 -329 217 -246 183 -276 205 -455 323 -177 117 -214 135
-273 131 l-47 -3 -113 -170 c-62 -93 -138 -221 -169 -283 -54 -108 -56 -117
-63 -215 -6 -98 -9 -107 -63 -217 -53 -108 -61 -134 -58 -187 1 -31 24 -50
201 -168 128 -86 323 -233 463 -351 l28 -24 -30 -42 c-17 -24 -52 -72 -78
-108 -25 -36 -101 -141 -167 -235 -115 -164 -120 -173 -138 -255 -10 -47 -36
-148 -58 -225 -22 -78 -40 -153 -40 -167 0 -40 68 -117 167 -190 49 -36 101
-81 116 -99 15 -19 50 -62 77 -96 87 -109 271 -253 343 -269 27 -6 35 -2 57
25 38 45 114 192 150 291 46 126 102 225 276 488 86 130 160 241 165 246 8 9
88 -34 344 -187 248 -148 256 -152 370 -214 145 -79 261 -133 284 -133 10 0
41 21 68 48 48 45 78 87 157 219 21 35 67 100 103 145 106 134 125 184 174
443 47 251 47 231 8 272 -42 43 -78 62 -203 103 -88 29 -205 78 -305 128 -56
28 -225 123 -234 132 -13 12 10 41 61 80 26 19 51 38 57 43 5 4 44 32 85 61
79 57 122 105 145 159 15 38 32 147 40 272 8 115 34 242 54 262 29 29 51 68
51 91 0 64 -68 137 -202 218 -35 21 -108 68 -163 104 -55 37 -122 79 -148 93
-52 29 -119 48 -134 38z m73 -120 c5 -5 43 -26 84 -47 114 -57 236 -140 312
-212 37 -35 68 -68 68 -73 0 -4 -42 -50 -93 -101 -97 -98 -177 -190 -342 -398
-55 -69 -147 -176 -204 -239 l-105 -114 39 -34 c60 -52 244 -170 390 -251 122
-66 190 -96 439 -187 85 -31 152 -60 165 -71 5 -4 -157 -301 -205 -374 -23
-36 -58 -83 -77 -105 l-35 -40 -94 47 c-51 26 -176 100 -278 164 -366 232
-538 327 -691 382 l-57 21 -50 -57 c-91 -105 -215 -285 -417 -607 -103 -165
-186 -285 -195 -285 -4 0 -83 69 -176 153 -93 83 -191 170 -218 193 l-48 41
37 73 c20 40 41 77 46 84 5 6 37 54 72 106 180 272 216 319 363 470 150 153
212 235 201 264 -6 14 -685 469 -822 551 -44 26 -82 49 -84 51 -2 2 9 38 24
80 18 51 64 131 137 240 60 90 112 164 115 164 29 0 355 -200 493 -303 30 -22
84 -62 120 -89 36 -26 70 -51 75 -56 6 -4 26 -19 45 -32 19 -14 37 -27 40 -30
18 -18 270 -200 284 -206 19 -7 44 26 283 386 86 129 179 264 207 300 118 154
128 163 152 141z m390 -543 c-4 -18 -13 -94 -21 -168 -17 -152 -26 -187 -66
-250 -32 -51 -80 -93 -189 -165 -41 -28 -77 -52 -80 -55 -3 -3 -24 -22 -47
-44 l-42 -39 -50 32 c-28 17 -55 31 -61 31 -25 0 -15 23 33 77 170 192 414
486 467 563 41 60 66 67 56 18z m-2252 -215 c102 -54 252 -151 584 -378 72
-49 131 -94 132 -98 0 -4 -53 -61 -118 -125 -66 -64 -127 -129 -137 -144 -9
-16 -22 -28 -27 -28 -5 0 -42 23 -81 50 -40 28 -144 101 -232 163 -88 62 -206
146 -263 187 l-102 75 5 42 c2 24 27 92 55 153 27 60 50 118 50 128 0 18 8 32
18 32 2 0 54 -26 116 -57z m1304 -1009 c146 -57 295 -138 502 -272 170 -111
338 -215 400 -249 30 -16 55 -34 55 -39 -1 -10 -81 -264 -97 -306 -6 -16 -15
-28 -21 -28 -5 0 -38 15 -71 34 -34 18 -115 62 -181 96 -300 157 -492 270
-634 373 l-84 60 -39 -44 c-55 -62 -153 -211 -238 -364 -40 -71 -84 -150 -98
-175 -14 -25 -35 -61 -47 -80 -42 -67 -153 -266 -194 -347 l-41 -82 -32 19
c-48 28 -114 91 -219 209 -54 61 -130 131 -183 171 -109 81 -131 104 -144 151
-13 48 -2 108 41 215 20 50 40 105 43 122 4 18 10 32 14 32 24 0 184 -136 358
-305 56 -55 108 -103 116 -107 18 -10 117 124 250 337 214 343 289 454 390
578 36 44 45 44 154 1z m1218 -367 c-15 -51 -57 -124 -167 -289 -30 -45 -59
-92 -62 -102 -13 -33 -16 -13 -6 39 12 67 64 174 152 314 41 64 78 125 82 136
17 38 17 -41 1 -98z"/>
<path d="M7075 2208 c-49 -50 -56 -68 -24 -68 34 0 60 20 76 57 24 59 1 64
-52 11z"/>
<path d="M7254 2154 c-4 -17 -2 -29 7 -35 21 -13 25 -11 37 16 17 37 15 45
-13 45 -18 0 -26 -7 -31 -26z"/>
<path d="M3485 3150 c-213 -14 -756 -62 -1300 -115 -381 -37 -822 -72 -1020
-81 l-140 -7 -66 -66 c-61 -62 -68 -73 -104 -176 -70 -203 -146 -380 -188
-440 -40 -58 -42 -63 -42 -135 0 -64 6 -89 39 -170 21 -52 45 -120 53 -150 18
-70 60 -182 76 -203 10 -13 25 -14 97 -6 47 4 288 13 535 18 555 12 586 15
815 56 199 36 365 58 580 75 291 24 715 79 801 106 22 6 100 84 155 154 25 32
89 96 143 143 119 103 141 141 141 243 0 48 -11 108 -36 199 -19 71 -48 193
-63 271 -31 157 -65 243 -107 271 -33 21 -164 26 -369 13z m314 -135 c41 -88
73 -181 101 -300 33 -139 74 -354 69 -360 -10 -9 -531 -74 -809 -100 -301 -29
-373 -34 -605 -50 -126 -8 -255 -17 -285 -20 -30 -3 -273 -17 -539 -30 l-484
-25 -28 26 c-91 87 -176 374 -168 568 2 47 7 87 11 91 4 4 42 16 85 26 90 22
266 34 683 49 300 11 332 14 730 68 261 36 399 49 600 57 173 7 533 34 539 41
2 2 21 4 42 4 34 0 38 -3 58 -45z m-2810 -435 c11 -36 34 -128 51 -205 40
-187 69 -277 91 -282 10 -3 25 -16 34 -29 20 -30 66 -32 173 -5 62 15 131 20
357 25 393 8 829 36 1358 86 205 20 720 83 786 96 l33 7 -16 -29 c-8 -16 -73
-88 -143 -161 -146 -150 -142 -148 -323 -164 -211 -18 -294 -28 -480 -58 -102
-16 -252 -34 -335 -40 -82 -6 -161 -14 -175 -16 -44 -8 -423 -42 -855 -76 -82
-7 -268 -12 -412 -13 l-263 -1 -51 115 c-122 274 -123 288 -30 490 92 199 165
340 172 332 4 -4 16 -36 28 -72z"/>
<path d="M3096 2682 c-14 -28 -14 -30 10 -42 31 -17 47 -3 42 36 -4 40 -33 43
-52 6z"/>
<path d="M3322 2664 c-27 -19 -30 -64 -4 -64 23 0 37 10 51 38 21 40 -6 55
-47 26z"/>
<path d="M2745 1681 c-30 -8 -96 -39 -105 -50 -12 -14 -100 -81 -160 -121 -70
-47 -266 -238 -318 -309 -29 -39 -32 -51 -32 -114 0 -94 25 -189 74 -282 34
-67 48 -83 86 -103 38 -20 55 -23 110 -19 135 11 285 100 450 267 161 163 224
284 225 431 0 77 -3 91 -34 152 -19 38 -55 87 -82 112 -48 45 -49 45 -116 44
-37 -1 -81 -4 -98 -8z m162 -127 c45 -34 75 -96 81 -170 6 -76 -16 -118 -78
-153 -56 -31 -160 -32 -219 -1 -69 35 -95 89 -92 192 3 113 214 204 308 132z
m-367 -178 c0 -139 102 -235 255 -239 30 -1 55 -5 55 -9 0 -9 -67 -88 -105
-123 -92 -86 -118 -107 -169 -140 -183 -117 -293 -76 -334 125 -22 107 -13
133 88 240 44 47 90 99 101 115 24 34 77 75 96 75 9 0 13 -15 13 -44z"/>
</g>
</svg>
